<?xml version="1.0" encoding="UTF-8" standalone="no"?>
<!DOCTYPE svg PUBLIC "-//W3C//DTD SVG 1.1//EN" "http://www.w3.org/Graphics/SVG/1.1/DTD/svg11.dtd">
<svg width="100%" height="100%" viewBox="0 0 32 32" version="1.1" xmlns="http://www.w3.org/2000/svg" xmlns:xlink="http://www.w3.org/1999/xlink" xml:space="preserve" xmlns:serif="http://www.serif.com/" style="fill-rule:evenodd;clip-rule:evenodd;stroke-linejoin:round;stroke-miterlimit:2;">
    <g transform="matrix(1,0,0,1,-2395,0)">
        <g id="favicon" transform="matrix(0.0166667,0,0,0.0296296,2355.08,0)">
            <rect x="2395" y="0" width="1920" height="1080" style="fill:none;"/>
            <g transform="matrix(16.1703,0,0,9.40547,-4089.91,-4762.11)">
                <g transform="matrix(0.445711,0,0,0.431034,-1338.82,254.147)">
                    <path d="M4152.5,650.907C4152.5,650.455 4152.25,650.038 4151.86,649.815C4151.47,649.592 4150.99,649.598 4150.6,649.829L4043.04,714.04C4042.66,714.267 4042.43,714.676 4042.43,715.118L4042.43,843.957C4042.43,844.408 4042.68,844.825 4043.07,845.048C4043.46,845.271 4043.94,845.266 4044.33,845.035L4151.89,780.824C4152.27,780.597 4152.5,780.188 4152.5,779.746L4152.5,650.907ZM4074.58,733.94L4074.58,792.477L4123.54,763.246L4123.54,704.708L4074.58,733.94Z" style="fill:rgb(13,130,168);"/>
                </g>
                <g transform="matrix(0.445711,0,0,0.431034,-1338.82,254.147)">
                    <path d="M3955.01,719.532L4029.15,761.281C4029.38,761.409 4029.52,761.649 4029.52,761.91L4029.52,844.139C4029.52,844.398 4029.38,844.638 4029.16,844.766C4028.93,844.895 4028.65,844.892 4028.43,844.758L3921.38,780.85C3921.16,780.72 3921.03,780.485 3921.03,780.231L3921.03,651.203C3921.03,650.943 3921.17,650.703 3921.39,650.575C3921.62,650.447 3921.9,650.45 3922.12,650.583L4029.17,714.491C4029.39,714.621 4029.52,714.857 4029.52,715.111L4029.52,746.755C4029.52,747.011 4029.38,747.249 4029.16,747.378C4028.94,747.507 4028.67,747.51 4028.44,747.384L3955.01,706.033L3955.01,719.532ZM3953.41,779.713L4003.44,809.582L4003.44,771.049L3953.41,741.18L3953.41,779.713Z" style="fill:rgb(13,130,168);"/>
                </g>
                <g transform="matrix(0.445711,0,0,0.431034,-1338.82,254.147)">
                    <path d="M4036.5,613.892L4074.51,591.353C4074.77,591.195 4075.1,591.195 4075.37,591.353L4113.23,613.808C4113.49,613.96 4113.65,614.237 4113.65,614.535C4113.65,614.834 4113.49,615.111 4113.23,615.263L4076.02,637.33L4113.23,659.397C4113.49,659.549 4113.65,659.826 4113.65,660.125C4113.65,660.423 4113.49,660.7 4113.23,660.852L4075.37,683.307C4075.1,683.465 4074.77,683.465 4074.51,683.307L4036.5,660.768L3998.49,683.307C3998.22,683.465 3997.89,683.465 3997.62,683.307L3959.76,660.852C3959.5,660.7 3959.35,660.423 3959.35,660.125C3959.35,659.826 3959.5,659.549 3959.76,659.397L3996.97,637.33L3959.76,615.263C3959.5,615.111 3959.35,614.834 3959.35,614.535C3959.35,614.237 3959.5,613.96 3959.76,613.808L3997.62,591.353C3997.89,591.195 3998.22,591.195 3998.49,591.353L4036.5,613.892Z" style="fill:rgb(13,130,168);"/>
                </g>
            </g>
        </g>
        <g id="logo-w">
        </g>
    </g>
</svg>
