<?xml version="1.0" encoding="UTF-8" standalone="no"?>
<!DOCTYPE svg PUBLIC "-//W3C//DTD SVG 1.1//EN" "http://www.w3.org/Graphics/SVG/1.1/DTD/svg11.dtd">
<svg width="100%" height="100%" viewBox="0 0 85 85" version="1.1" xmlns="http://www.w3.org/2000/svg" xmlns:xlink="http://www.w3.org/1999/xlink" xml:space="preserve" xmlns:serif="http://www.serif.com/" style="fill-rule:evenodd;clip-rule:evenodd;stroke-linejoin:round;stroke-miterlimit:2;">
    <g transform="matrix(1,0,0,1,-1246.27,-798.308)">
        <g transform="matrix(1,0,0,1,69.564,99.3402)">
            <g transform="matrix(1.23443,0,0,1.23443,-231.317,-182.373)">
                <g transform="matrix(0.992656,0,0,0.992656,404.082,-67.2523)">
                    <circle cx="776.5" cy="821.5" r="34.5" style="fill:#0D82A8;"/>
                </g>
                <g transform="matrix(0.30101,0,0,0.30101,1129.53,642.305)">
                    <path d="M120.426,293.715C105.036,293.715 92.515,306.234 92.515,321.623L92.515,382.069C92.515,397.459 105.036,409.979 120.426,409.979L180.87,409.979C196.26,409.979 208.78,397.459 208.78,382.069L208.78,321.623C208.78,306.234 196.26,293.715 180.87,293.715L120.426,293.715ZM180.87,422.006L120.426,422.006C98.405,422.006 80.489,404.091 80.489,382.069L80.489,321.623C80.489,299.603 98.405,281.688 120.426,281.688L180.87,281.688C202.891,281.688 220.808,299.603 220.808,321.623L220.808,382.069C220.808,404.091 202.891,422.006 180.87,422.006Z" style="fill:white;fill-rule:nonzero;"/>
                    <path d="M150.648,327.946C137.469,327.946 126.747,338.667 126.747,351.847C126.747,365.025 137.469,375.747 150.648,375.747C163.827,375.747 174.549,365.025 174.549,351.847C174.549,338.667 163.827,327.946 150.648,327.946ZM150.648,387.774C130.837,387.774 114.72,371.658 114.72,351.847C114.72,332.036 130.837,315.918 150.648,315.918C170.458,315.918 186.576,332.036 186.576,351.847C186.576,371.658 170.458,387.774 150.648,387.774Z" style="fill:white;fill-rule:nonzero;"/>
                    <path d="M196.752,313.863C196.752,318.633 192.886,322.498 188.117,322.498C183.349,322.498 179.481,318.633 179.481,313.863C179.481,309.095 183.349,305.227 188.117,305.227C192.886,305.227 196.752,309.095 196.752,313.863Z" style="fill:white;fill-rule:nonzero;"/>
                </g>
            </g>
        </g>
    </g>
</svg>
