<?xml version="1.0" encoding="UTF-8" standalone="no"?>
<!DOCTYPE svg PUBLIC "-//W3C//DTD SVG 1.1//EN" "http://www.w3.org/Graphics/SVG/1.1/DTD/svg11.dtd">
<svg width="100%" height="100%" viewBox="0 0 85 85" version="1.1" xmlns="http://www.w3.org/2000/svg" xmlns:xlink="http://www.w3.org/1999/xlink" xml:space="preserve" xmlns:serif="http://www.serif.com/" style="fill-rule:evenodd;clip-rule:evenodd;stroke-linejoin:round;stroke-miterlimit:2;">
    <g transform="matrix(1,0,0,1,-1135.99,-798.308)">
        <g transform="matrix(1,0,0,1,69.564,99.3402)">
            <g transform="matrix(1.23443,0,0,1.23443,-231.317,-182.373)">
                <g transform="matrix(0.992656,0,0,0.992656,314.743,-67.2523)">
                    <circle cx="776.5" cy="821.5" r="34.5" style="fill:#0D82A8;"/>
                </g>
                <g transform="matrix(0.3347,0,0,0.3347,868.184,546.018)">
                    <path d="M711.323,598.032C710.488,565.337 683.607,539.178 650.496,539.178C617.801,539.178 591.124,564.713 589.772,596.891C589.668,597.721 589.668,598.655 589.668,599.484C589.668,610.902 592.887,621.594 598.39,630.729L587.387,663.114L621.119,652.422C629.84,657.199 639.907,659.896 650.496,659.896C684.126,659.896 711.425,632.908 711.425,599.484C711.425,598.967 711.323,598.55 711.323,598.032ZM678.416,611.733C676.86,611.007 669.595,607.375 668.246,606.855C666.79,606.44 665.857,606.129 664.821,607.686C663.884,609.138 660.98,612.461 660.147,613.394C659.212,614.434 658.384,614.537 656.931,613.81C655.371,613.083 650.598,611.525 644.892,606.44C640.426,602.496 637.418,597.721 636.585,596.268C635.754,594.711 636.48,593.984 637.209,593.154C637.936,592.532 638.767,591.493 639.49,590.558C639.699,590.351 639.907,590.143 640.01,589.936C640.426,589.313 640.632,588.795 640.946,588.171C641.465,587.135 641.259,586.303 640.845,585.577C640.527,584.851 637.522,577.481 636.272,574.574C635.03,571.563 633.784,572.083 632.951,572.083C632.018,572.083 631.085,571.979 630.048,571.979C629.007,571.979 627.452,572.291 626.103,573.848C624.647,575.3 620.806,578.829 620.806,586.199C620.806,587.859 621.119,589.624 621.642,591.182C623.092,596.476 626.415,600.731 626.934,601.458C627.658,602.496 637.209,617.858 652.361,623.775C667.621,629.691 667.621,627.72 670.319,627.512C673.02,627.303 679.143,623.982 680.391,620.453C681.634,617.028 681.634,614.016 681.22,613.394C680.908,612.876 679.871,612.461 678.416,611.733ZM650.496,650.347C640.114,650.347 630.462,647.234 622.365,641.938L602.748,648.168L609.077,629.275C602.957,620.972 599.323,610.594 599.323,599.484C599.323,597.824 599.426,596.268 599.634,594.606C602.126,568.864 624.024,548.729 650.496,548.729C677.379,548.729 699.49,569.385 701.563,595.541C701.668,596.891 701.668,598.239 701.668,599.484C701.668,627.512 678.728,650.347 650.496,650.347Z" style="fill:white;"/>
                </g>
            </g>
        </g>
    </g>
</svg>
